<mxfile host="app.diagrams.net" modified="2020-12-16T05:55:59.582Z" agent="5.0 (Macintosh; Intel Mac OS X 10_15_7) AppleWebKit/537.36 (KHTML, like Gecko) Chrome/87.0.4280.88 Safari/537.36" etag="1t70EKhhLKVJ4t-8ZYXS" version="14.0.3" type="github">
  <diagram id="NFnk5CNEQlGa55r-qeUA" name="Page-1">
    <mxGraphModel dx="2253" dy="713" grid="1" gridSize="10" guides="1" tooltips="1" connect="1" arrows="1" fold="1" page="1" pageScale="1" pageWidth="827" pageHeight="1169" math="0" shadow="0">
      <root>
        <mxCell id="0" />
        <mxCell id="1" parent="0" />
        <mxCell id="BHr-HHq2_wPLYs7JveMa-1" value="" style="edgeStyle=orthogonalEdgeStyle;rounded=0;orthogonalLoop=1;jettySize=auto;html=1;entryX=0;entryY=0.5;entryDx=0;entryDy=0;dashed=1;endArrow=none;endFill=0;strokeColor=#A4B7B8;" edge="1" parent="1" source="BHr-HHq2_wPLYs7JveMa-2" target="BHr-HHq2_wPLYs7JveMa-3">
          <mxGeometry relative="1" as="geometry">
            <mxPoint x="150" y="261" as="targetPoint" />
          </mxGeometry>
        </mxCell>
        <mxCell id="BHr-HHq2_wPLYs7JveMa-2" value="master" style="rounded=1;whiteSpace=wrap;html=1;fillColor=#97D077;strokeColor=#4D9900;" vertex="1" parent="1">
          <mxGeometry x="-40" y="231" width="100" height="20" as="geometry" />
        </mxCell>
        <mxCell id="BHr-HHq2_wPLYs7JveMa-3" value="" style="ellipse;whiteSpace=wrap;html=1;aspect=fixed;fillColor=#97D077;strokeColor=#4D9900;" vertex="1" parent="1">
          <mxGeometry x="90" y="231" width="20" height="20" as="geometry" />
        </mxCell>
        <mxCell id="BHr-HHq2_wPLYs7JveMa-4" value="" style="edgeStyle=none;rounded=0;jumpStyle=none;orthogonalLoop=1;jettySize=auto;html=1;exitX=1;exitY=0.5;exitDx=0;exitDy=0;" edge="1" parent="1" source="BHr-HHq2_wPLYs7JveMa-3" target="BHr-HHq2_wPLYs7JveMa-7">
          <mxGeometry relative="1" as="geometry">
            <mxPoint x="147.5" y="241" as="sourcePoint" />
          </mxGeometry>
        </mxCell>
        <mxCell id="BHr-HHq2_wPLYs7JveMa-5" value="" style="edgeStyle=none;rounded=0;jumpStyle=none;orthogonalLoop=1;jettySize=auto;html=1;dashed=1;endArrow=none;endFill=0;strokeColor=#A4B7B8;" edge="1" parent="1" source="BHr-HHq2_wPLYs7JveMa-61">
          <mxGeometry relative="1" as="geometry">
            <mxPoint x="505" y="241" as="targetPoint" />
          </mxGeometry>
        </mxCell>
        <mxCell id="BHr-HHq2_wPLYs7JveMa-6" style="edgeStyle=none;rounded=0;jumpStyle=none;orthogonalLoop=1;jettySize=auto;html=1;endArrow=classic;endFill=1;strokeColor=#000000;strokeWidth=1;" edge="1" parent="1" source="BHr-HHq2_wPLYs7JveMa-7" target="BHr-HHq2_wPLYs7JveMa-59">
          <mxGeometry relative="1" as="geometry" />
        </mxCell>
        <mxCell id="BHr-HHq2_wPLYs7JveMa-7" value="" style="ellipse;whiteSpace=wrap;html=1;aspect=fixed;fillColor=#97D077;strokeColor=#4D9900;" vertex="1" parent="1">
          <mxGeometry x="395" y="231" width="20" height="20" as="geometry" />
        </mxCell>
        <mxCell id="BHr-HHq2_wPLYs7JveMa-8" style="edgeStyle=none;rounded=0;jumpStyle=none;orthogonalLoop=1;jettySize=auto;html=1;entryX=1;entryY=0.5;entryDx=0;entryDy=0;dashed=1;strokeColor=#A4B7B8;" edge="1" parent="1" source="BHr-HHq2_wPLYs7JveMa-9" target="BHr-HHq2_wPLYs7JveMa-29">
          <mxGeometry relative="1" as="geometry" />
        </mxCell>
        <mxCell id="BHr-HHq2_wPLYs7JveMa-9" value="release" style="rounded=1;whiteSpace=wrap;html=1;fillColor=#FFFF99;strokeColor=#999900;" vertex="1" parent="1">
          <mxGeometry x="-40" y="310" width="100" height="20" as="geometry" />
        </mxCell>
        <mxCell id="BHr-HHq2_wPLYs7JveMa-10" style="edgeStyle=orthogonalEdgeStyle;rounded=0;orthogonalLoop=1;jettySize=auto;html=1;exitX=1;exitY=0.5;exitDx=0;exitDy=0;dashed=1;endArrow=none;endFill=0;strokeColor=#A4B7B8;" edge="1" parent="1" source="BHr-HHq2_wPLYs7JveMa-11" target="BHr-HHq2_wPLYs7JveMa-14">
          <mxGeometry relative="1" as="geometry" />
        </mxCell>
        <mxCell id="BHr-HHq2_wPLYs7JveMa-11" value="develop" style="rounded=1;whiteSpace=wrap;html=1;fillColor=#FFB570;strokeColor=#663300;" vertex="1" parent="1">
          <mxGeometry x="-40" y="350" width="100" height="20" as="geometry" />
        </mxCell>
        <mxCell id="BHr-HHq2_wPLYs7JveMa-12" style="rounded=0;orthogonalLoop=1;jettySize=auto;html=1;" edge="1" parent="1" source="BHr-HHq2_wPLYs7JveMa-14" target="BHr-HHq2_wPLYs7JveMa-45">
          <mxGeometry relative="1" as="geometry">
            <mxPoint x="145" y="434" as="targetPoint" />
          </mxGeometry>
        </mxCell>
        <mxCell id="BHr-HHq2_wPLYs7JveMa-13" value="" style="edgeStyle=orthogonalEdgeStyle;rounded=0;orthogonalLoop=1;jettySize=auto;html=1;" edge="1" parent="1" source="BHr-HHq2_wPLYs7JveMa-14" target="BHr-HHq2_wPLYs7JveMa-17">
          <mxGeometry relative="1" as="geometry" />
        </mxCell>
        <mxCell id="BHr-HHq2_wPLYs7JveMa-14" value="" style="ellipse;whiteSpace=wrap;html=1;aspect=fixed;fillColor=#FFB570;strokeColor=#663300;" vertex="1" parent="1">
          <mxGeometry x="110" y="350" width="20" height="20" as="geometry" />
        </mxCell>
        <mxCell id="BHr-HHq2_wPLYs7JveMa-15" value="" style="edgeStyle=orthogonalEdgeStyle;rounded=0;orthogonalLoop=1;jettySize=auto;html=1;" edge="1" parent="1" source="BHr-HHq2_wPLYs7JveMa-17" target="BHr-HHq2_wPLYs7JveMa-19">
          <mxGeometry relative="1" as="geometry" />
        </mxCell>
        <mxCell id="BHr-HHq2_wPLYs7JveMa-16" style="edgeStyle=none;rounded=0;jumpStyle=none;orthogonalLoop=1;jettySize=auto;html=1;entryX=0;entryY=0;entryDx=0;entryDy=0;endArrow=classic;endFill=1;strokeColor=#000000;strokeWidth=1;" edge="1" parent="1" source="BHr-HHq2_wPLYs7JveMa-17" target="BHr-HHq2_wPLYs7JveMa-51">
          <mxGeometry relative="1" as="geometry" />
        </mxCell>
        <mxCell id="BHr-HHq2_wPLYs7JveMa-17" value="" style="ellipse;whiteSpace=wrap;html=1;aspect=fixed;fillColor=#FFB570;strokeColor=#663300;" vertex="1" parent="1">
          <mxGeometry x="160" y="350" width="20" height="20" as="geometry" />
        </mxCell>
        <mxCell id="BHr-HHq2_wPLYs7JveMa-18" style="edgeStyle=none;rounded=0;jumpStyle=none;orthogonalLoop=1;jettySize=auto;html=1;" edge="1" parent="1" source="BHr-HHq2_wPLYs7JveMa-19" target="BHr-HHq2_wPLYs7JveMa-23">
          <mxGeometry relative="1" as="geometry" />
        </mxCell>
        <mxCell id="BHr-HHq2_wPLYs7JveMa-19" value="" style="ellipse;whiteSpace=wrap;html=1;aspect=fixed;fillColor=#FFB570;strokeColor=#663300;" vertex="1" parent="1">
          <mxGeometry x="215" y="350" width="20" height="20" as="geometry" />
        </mxCell>
        <mxCell id="BHr-HHq2_wPLYs7JveMa-20" value="" style="rounded=0;orthogonalLoop=1;jettySize=auto;html=1;jumpStyle=none;" edge="1" parent="1" target="BHr-HHq2_wPLYs7JveMa-23">
          <mxGeometry relative="1" as="geometry">
            <mxPoint x="243.01882827613463" y="398.02518677464514" as="sourcePoint" />
          </mxGeometry>
        </mxCell>
        <mxCell id="BHr-HHq2_wPLYs7JveMa-21" value="" style="edgeStyle=none;rounded=0;jumpStyle=none;orthogonalLoop=1;jettySize=auto;html=1;" edge="1" parent="1" source="BHr-HHq2_wPLYs7JveMa-23" target="BHr-HHq2_wPLYs7JveMa-26">
          <mxGeometry relative="1" as="geometry" />
        </mxCell>
        <mxCell id="BHr-HHq2_wPLYs7JveMa-22" style="edgeStyle=none;rounded=0;jumpStyle=none;orthogonalLoop=1;jettySize=auto;html=1;" edge="1" parent="1" source="BHr-HHq2_wPLYs7JveMa-23" target="BHr-HHq2_wPLYs7JveMa-29">
          <mxGeometry relative="1" as="geometry">
            <mxPoint x="319" y="350" as="targetPoint" />
          </mxGeometry>
        </mxCell>
        <mxCell id="BHr-HHq2_wPLYs7JveMa-23" value="" style="ellipse;whiteSpace=wrap;html=1;aspect=fixed;fillColor=#FFB570;strokeColor=#663300;" vertex="1" parent="1">
          <mxGeometry x="285" y="350" width="20" height="20" as="geometry" />
        </mxCell>
        <mxCell id="BHr-HHq2_wPLYs7JveMa-24" value="" style="edgeStyle=none;rounded=0;jumpStyle=none;orthogonalLoop=1;jettySize=auto;html=1;dashed=1;endArrow=none;endFill=0;strokeColor=#A4B7B8;exitX=1;exitY=0.5;exitDx=0;exitDy=0;" edge="1" parent="1" source="BHr-HHq2_wPLYs7JveMa-27">
          <mxGeometry relative="1" as="geometry">
            <mxPoint x="480" y="360" as="sourcePoint" />
            <mxPoint x="570" y="360" as="targetPoint" />
          </mxGeometry>
        </mxCell>
        <mxCell id="BHr-HHq2_wPLYs7JveMa-25" value="" style="edgeStyle=none;rounded=0;jumpStyle=none;orthogonalLoop=1;jettySize=auto;html=1;endArrow=classic;endFill=1;strokeColor=#000000;strokeWidth=1;" edge="1" parent="1" source="BHr-HHq2_wPLYs7JveMa-26" target="BHr-HHq2_wPLYs7JveMa-27">
          <mxGeometry relative="1" as="geometry" />
        </mxCell>
        <mxCell id="BHr-HHq2_wPLYs7JveMa-26" value="" style="ellipse;whiteSpace=wrap;html=1;aspect=fixed;fillColor=#FFB570;strokeColor=#663300;" vertex="1" parent="1">
          <mxGeometry x="425" y="350" width="20" height="20" as="geometry" />
        </mxCell>
        <mxCell id="BHr-HHq2_wPLYs7JveMa-27" value="" style="ellipse;whiteSpace=wrap;html=1;aspect=fixed;fillColor=#FFB570;strokeColor=#663300;" vertex="1" parent="1">
          <mxGeometry x="482.5" y="350" width="20" height="20" as="geometry" />
        </mxCell>
        <mxCell id="BHr-HHq2_wPLYs7JveMa-28" value="" style="edgeStyle=none;rounded=0;jumpStyle=none;orthogonalLoop=1;jettySize=auto;html=1;" edge="1" parent="1" source="BHr-HHq2_wPLYs7JveMa-29" target="BHr-HHq2_wPLYs7JveMa-33">
          <mxGeometry relative="1" as="geometry" />
        </mxCell>
        <mxCell id="BHr-HHq2_wPLYs7JveMa-29" value="" style="ellipse;whiteSpace=wrap;html=1;aspect=fixed;fillColor=#FFFF99;strokeColor=#999900;" vertex="1" parent="1">
          <mxGeometry x="345" y="310" width="20" height="20" as="geometry" />
        </mxCell>
        <mxCell id="BHr-HHq2_wPLYs7JveMa-30" style="edgeStyle=none;rounded=0;jumpStyle=none;orthogonalLoop=1;jettySize=auto;html=1;entryX=0.5;entryY=1;entryDx=0;entryDy=0;" edge="1" parent="1" source="BHr-HHq2_wPLYs7JveMa-33" target="BHr-HHq2_wPLYs7JveMa-7">
          <mxGeometry relative="1" as="geometry" />
        </mxCell>
        <mxCell id="BHr-HHq2_wPLYs7JveMa-31" value="" style="edgeStyle=none;rounded=0;jumpStyle=none;orthogonalLoop=1;jettySize=auto;html=1;dashed=1;endArrow=none;endFill=0;strokeColor=#A4B7B8;" edge="1" parent="1" source="BHr-HHq2_wPLYs7JveMa-33">
          <mxGeometry relative="1" as="geometry">
            <mxPoint x="570" y="320" as="targetPoint" />
          </mxGeometry>
        </mxCell>
        <mxCell id="BHr-HHq2_wPLYs7JveMa-32" style="edgeStyle=none;rounded=0;jumpStyle=none;orthogonalLoop=1;jettySize=auto;html=1;entryX=0;entryY=0;entryDx=0;entryDy=0;endArrow=classic;endFill=1;strokeColor=#000000;strokeWidth=1;" edge="1" parent="1" source="BHr-HHq2_wPLYs7JveMa-33" target="BHr-HHq2_wPLYs7JveMa-26">
          <mxGeometry relative="1" as="geometry" />
        </mxCell>
        <mxCell id="BHr-HHq2_wPLYs7JveMa-33" value="" style="ellipse;whiteSpace=wrap;html=1;aspect=fixed;fillColor=#FFFF99;strokeColor=#999900;" vertex="1" parent="1">
          <mxGeometry x="395" y="310" width="20" height="20" as="geometry" />
        </mxCell>
        <mxCell id="BHr-HHq2_wPLYs7JveMa-34" style="edgeStyle=none;rounded=0;jumpStyle=none;orthogonalLoop=1;jettySize=auto;html=1;endArrow=classic;endFill=1;strokeWidth=1;" edge="1" parent="1" source="BHr-HHq2_wPLYs7JveMa-35" target="BHr-HHq2_wPLYs7JveMa-3">
          <mxGeometry relative="1" as="geometry" />
        </mxCell>
        <mxCell id="BHr-HHq2_wPLYs7JveMa-35" value="v0.1" style="rounded=1;whiteSpace=wrap;html=1;fillColor=#97D077;strokeColor=#4D9900;" vertex="1" parent="1">
          <mxGeometry x="82.5" y="191" width="35" height="20" as="geometry" />
        </mxCell>
        <mxCell id="BHr-HHq2_wPLYs7JveMa-36" value="v0.3" style="rounded=1;whiteSpace=wrap;html=1;fillColor=#97D077;strokeColor=#4D9900;" vertex="1" parent="1">
          <mxGeometry x="387.5" y="191" width="35" height="20" as="geometry" />
        </mxCell>
        <mxCell id="BHr-HHq2_wPLYs7JveMa-37" style="edgeStyle=none;rounded=0;jumpStyle=none;orthogonalLoop=1;jettySize=auto;html=1;endArrow=classic;endFill=1;entryX=0.5;entryY=0;entryDx=0;entryDy=0;" edge="1" parent="1" source="BHr-HHq2_wPLYs7JveMa-36" target="BHr-HHq2_wPLYs7JveMa-7">
          <mxGeometry relative="1" as="geometry">
            <mxPoint x="243.16659738097496" y="231" as="sourcePoint" />
            <mxPoint x="244.50062383056093" y="251.01247661122034" as="targetPoint" />
          </mxGeometry>
        </mxCell>
        <mxCell id="BHr-HHq2_wPLYs7JveMa-38" value="" style="rounded=0;whiteSpace=wrap;html=1;strokeColor=#0000FF;fillColor=none;gradientColor=none;dashed=1;" vertex="1" parent="1">
          <mxGeometry x="-50" y="383" width="630" height="80" as="geometry" />
        </mxCell>
        <mxCell id="BHr-HHq2_wPLYs7JveMa-39" value="release-0.3" style="text;html=1;align=center;verticalAlign=middle;resizable=0;points=[];autosize=1;" vertex="1" parent="1">
          <mxGeometry x="318" y="294" width="80" height="20" as="geometry" />
        </mxCell>
        <mxCell id="BHr-HHq2_wPLYs7JveMa-40" style="edgeStyle=orthogonalEdgeStyle;rounded=0;orthogonalLoop=1;jettySize=auto;html=1;dashed=1;strokeColor=#A4B7B8;endArrow=none;endFill=0;" edge="1" parent="1" source="BHr-HHq2_wPLYs7JveMa-41" target="BHr-HHq2_wPLYs7JveMa-51">
          <mxGeometry relative="1" as="geometry" />
        </mxCell>
        <mxCell id="BHr-HHq2_wPLYs7JveMa-41" value="feature" style="rounded=1;whiteSpace=wrap;html=1;fillColor=#99CCFF;strokeColor=#004C99;" vertex="1" parent="1">
          <mxGeometry x="-40" y="394" width="100" height="20" as="geometry" />
        </mxCell>
        <mxCell id="BHr-HHq2_wPLYs7JveMa-42" style="edgeStyle=none;rounded=0;jumpStyle=none;orthogonalLoop=1;jettySize=auto;html=1;entryX=0;entryY=0.5;entryDx=0;entryDy=0;dashed=1;endArrow=none;endFill=0;strokeColor=#A4B7B8;" edge="1" parent="1" source="BHr-HHq2_wPLYs7JveMa-43" target="BHr-HHq2_wPLYs7JveMa-45">
          <mxGeometry relative="1" as="geometry" />
        </mxCell>
        <mxCell id="BHr-HHq2_wPLYs7JveMa-43" value="feature" style="rounded=1;whiteSpace=wrap;html=1;fillColor=#99CCFF;strokeColor=#004C99;" vertex="1" parent="1">
          <mxGeometry x="-40" y="434" width="100" height="20" as="geometry" />
        </mxCell>
        <mxCell id="BHr-HHq2_wPLYs7JveMa-44" style="edgeStyle=orthogonalEdgeStyle;rounded=0;orthogonalLoop=1;jettySize=auto;html=1;entryX=0;entryY=0.5;entryDx=0;entryDy=0;" edge="1" parent="1" source="BHr-HHq2_wPLYs7JveMa-45" target="BHr-HHq2_wPLYs7JveMa-47">
          <mxGeometry relative="1" as="geometry" />
        </mxCell>
        <mxCell id="BHr-HHq2_wPLYs7JveMa-45" value="" style="ellipse;whiteSpace=wrap;html=1;aspect=fixed;fillColor=#99CCFF;strokeColor=#004C99;" vertex="1" parent="1">
          <mxGeometry x="110" y="434" width="20" height="20" as="geometry" />
        </mxCell>
        <mxCell id="BHr-HHq2_wPLYs7JveMa-46" value="" style="edgeStyle=orthogonalEdgeStyle;rounded=0;orthogonalLoop=1;jettySize=auto;html=1;" edge="1" parent="1" source="BHr-HHq2_wPLYs7JveMa-47" target="BHr-HHq2_wPLYs7JveMa-49">
          <mxGeometry relative="1" as="geometry" />
        </mxCell>
        <mxCell id="BHr-HHq2_wPLYs7JveMa-47" value="" style="ellipse;whiteSpace=wrap;html=1;aspect=fixed;fillColor=#99CCFF;strokeColor=#004C99;" vertex="1" parent="1">
          <mxGeometry x="185" y="434" width="20" height="20" as="geometry" />
        </mxCell>
        <mxCell id="BHr-HHq2_wPLYs7JveMa-48" value="" style="edgeStyle=none;rounded=0;jumpStyle=none;orthogonalLoop=1;jettySize=auto;html=1;dashed=1;endArrow=none;endFill=0;strokeColor=#A4B7B8;" edge="1" parent="1" source="BHr-HHq2_wPLYs7JveMa-49">
          <mxGeometry relative="1" as="geometry">
            <mxPoint x="570" y="444" as="targetPoint" />
          </mxGeometry>
        </mxCell>
        <mxCell id="BHr-HHq2_wPLYs7JveMa-49" value="" style="ellipse;whiteSpace=wrap;html=1;aspect=fixed;fillColor=#99CCFF;strokeColor=#004C99;" vertex="1" parent="1">
          <mxGeometry x="225" y="434" width="20" height="20" as="geometry" />
        </mxCell>
        <mxCell id="BHr-HHq2_wPLYs7JveMa-50" value="" style="edgeStyle=orthogonalEdgeStyle;rounded=0;orthogonalLoop=1;jettySize=auto;html=1;" edge="1" parent="1" source="BHr-HHq2_wPLYs7JveMa-51" target="BHr-HHq2_wPLYs7JveMa-53">
          <mxGeometry relative="1" as="geometry" />
        </mxCell>
        <mxCell id="BHr-HHq2_wPLYs7JveMa-51" value="" style="ellipse;whiteSpace=wrap;html=1;aspect=fixed;fillColor=#99CCFF;strokeColor=#004C99;" vertex="1" parent="1">
          <mxGeometry x="185" y="394" width="20" height="20" as="geometry" />
        </mxCell>
        <mxCell id="BHr-HHq2_wPLYs7JveMa-52" value="" style="edgeStyle=none;rounded=0;jumpStyle=none;orthogonalLoop=1;jettySize=auto;html=1;endArrow=none;endFill=0;strokeWidth=1;dashed=1;strokeColor=#A4B7B8;" edge="1" parent="1" source="BHr-HHq2_wPLYs7JveMa-53">
          <mxGeometry relative="1" as="geometry">
            <mxPoint x="570" y="400" as="targetPoint" />
          </mxGeometry>
        </mxCell>
        <mxCell id="BHr-HHq2_wPLYs7JveMa-53" value="" style="ellipse;whiteSpace=wrap;html=1;aspect=fixed;fillColor=#99CCFF;strokeColor=#004C99;" vertex="1" parent="1">
          <mxGeometry x="225" y="394" width="20" height="20" as="geometry" />
        </mxCell>
        <mxCell id="BHr-HHq2_wPLYs7JveMa-54" style="edgeStyle=none;rounded=0;jumpStyle=none;orthogonalLoop=1;jettySize=auto;html=1;dashed=1;endArrow=none;endFill=0;strokeColor=#A4B7B8;strokeWidth=1;" edge="1" parent="1" source="BHr-HHq2_wPLYs7JveMa-55" target="BHr-HHq2_wPLYs7JveMa-59">
          <mxGeometry relative="1" as="geometry" />
        </mxCell>
        <mxCell id="BHr-HHq2_wPLYs7JveMa-55" value="hotfix" style="rounded=1;whiteSpace=wrap;html=1;fillColor=#A680B8;strokeColor=#4D9900;" vertex="1" parent="1">
          <mxGeometry x="-40" y="272" width="100" height="20" as="geometry" />
        </mxCell>
        <mxCell id="BHr-HHq2_wPLYs7JveMa-56" value="" style="edgeStyle=none;rounded=0;jumpStyle=none;orthogonalLoop=1;jettySize=auto;html=1;endArrow=classic;endFill=1;strokeColor=#000000;strokeWidth=1;" edge="1" parent="1" source="BHr-HHq2_wPLYs7JveMa-59" target="BHr-HHq2_wPLYs7JveMa-61">
          <mxGeometry relative="1" as="geometry" />
        </mxCell>
        <mxCell id="BHr-HHq2_wPLYs7JveMa-57" value="" style="edgeStyle=none;rounded=0;jumpStyle=none;orthogonalLoop=1;jettySize=auto;html=1;endArrow=none;endFill=0;strokeColor=#A4B7B8;strokeWidth=1;dashed=1;" edge="1" parent="1" source="BHr-HHq2_wPLYs7JveMa-59">
          <mxGeometry relative="1" as="geometry">
            <mxPoint x="570" y="282" as="targetPoint" />
          </mxGeometry>
        </mxCell>
        <mxCell id="BHr-HHq2_wPLYs7JveMa-58" style="edgeStyle=none;rounded=0;jumpStyle=none;orthogonalLoop=1;jettySize=auto;html=1;endArrow=classic;endFill=1;strokeColor=#000000;strokeWidth=1;" edge="1" parent="1" source="BHr-HHq2_wPLYs7JveMa-59" target="BHr-HHq2_wPLYs7JveMa-27">
          <mxGeometry relative="1" as="geometry" />
        </mxCell>
        <mxCell id="BHr-HHq2_wPLYs7JveMa-59" value="" style="ellipse;whiteSpace=wrap;html=1;aspect=fixed;fillColor=#A680B8;strokeColor=#4D9900;" vertex="1" parent="1">
          <mxGeometry x="445" y="272" width="20" height="20" as="geometry" />
        </mxCell>
        <mxCell id="BHr-HHq2_wPLYs7JveMa-60" value="" style="edgeStyle=none;rounded=0;jumpStyle=none;orthogonalLoop=1;jettySize=auto;html=1;endArrow=none;endFill=0;strokeColor=#A4B7B8;strokeWidth=1;dashed=1;" edge="1" parent="1" source="BHr-HHq2_wPLYs7JveMa-61">
          <mxGeometry relative="1" as="geometry">
            <mxPoint x="570" y="241" as="targetPoint" />
          </mxGeometry>
        </mxCell>
        <mxCell id="BHr-HHq2_wPLYs7JveMa-61" value="" style="ellipse;whiteSpace=wrap;html=1;aspect=fixed;fillColor=#97D077;strokeColor=#4D9900;" vertex="1" parent="1">
          <mxGeometry x="490" y="231" width="20" height="20" as="geometry" />
        </mxCell>
        <mxCell id="BHr-HHq2_wPLYs7JveMa-62" value="" style="edgeStyle=none;rounded=0;jumpStyle=none;orthogonalLoop=1;jettySize=auto;html=1;endArrow=classic;endFill=1;strokeColor=#000000;" edge="1" parent="1" source="BHr-HHq2_wPLYs7JveMa-7" target="BHr-HHq2_wPLYs7JveMa-61">
          <mxGeometry relative="1" as="geometry">
            <mxPoint x="415" y="241" as="sourcePoint" />
            <mxPoint x="505" y="241" as="targetPoint" />
          </mxGeometry>
        </mxCell>
        <mxCell id="BHr-HHq2_wPLYs7JveMa-63" style="edgeStyle=none;rounded=0;jumpStyle=none;orthogonalLoop=1;jettySize=auto;html=1;endArrow=classic;endFill=1;strokeColor=#A4B7B8;strokeWidth=1;" edge="1" parent="1" source="BHr-HHq2_wPLYs7JveMa-64" target="BHr-HHq2_wPLYs7JveMa-61">
          <mxGeometry relative="1" as="geometry" />
        </mxCell>
        <mxCell id="BHr-HHq2_wPLYs7JveMa-64" value="v0.3.1" style="rounded=1;whiteSpace=wrap;html=1;fillColor=#97D077;strokeColor=#4D9900;" vertex="1" parent="1">
          <mxGeometry x="482.5" y="191" width="35" height="20" as="geometry" />
        </mxCell>
        <mxCell id="BHr-HHq2_wPLYs7JveMa-65" style="edgeStyle=none;rounded=0;jumpStyle=none;orthogonalLoop=1;jettySize=auto;html=1;exitX=0;exitY=0;exitDx=0;exitDy=0;entryX=1;entryY=0;entryDx=0;entryDy=0;endArrow=classic;endFill=1;strokeColor=#A4B7B8;strokeWidth=1;" edge="1" parent="1" source="BHr-HHq2_wPLYs7JveMa-27" target="BHr-HHq2_wPLYs7JveMa-27">
          <mxGeometry relative="1" as="geometry" />
        </mxCell>
        <mxCell id="BHr-HHq2_wPLYs7JveMa-66" value="" style="rounded=0;whiteSpace=wrap;html=1;strokeColor=#999999;fillColor=none;gradientColor=none;" vertex="1" parent="1">
          <mxGeometry x="-130" y="120" width="810" height="480" as="geometry" />
        </mxCell>
        <mxCell id="BHr-HHq2_wPLYs7JveMa-67" style="edgeStyle=none;rounded=0;jumpStyle=none;orthogonalLoop=1;jettySize=auto;html=1;exitX=1;exitY=0.5;exitDx=0;exitDy=0;endArrow=classic;endFill=1;strokeColor=#000000;strokeWidth=1;" edge="1" parent="1" source="BHr-HHq2_wPLYs7JveMa-66" target="BHr-HHq2_wPLYs7JveMa-66">
          <mxGeometry relative="1" as="geometry" />
        </mxCell>
        <mxCell id="BHr-HHq2_wPLYs7JveMa-68" style="edgeStyle=none;rounded=0;jumpStyle=none;orthogonalLoop=1;jettySize=auto;html=1;exitX=1;exitY=1;exitDx=0;exitDy=0;endArrow=classic;endFill=1;strokeColor=#000000;strokeWidth=1;" edge="1" parent="1" source="BHr-HHq2_wPLYs7JveMa-66" target="BHr-HHq2_wPLYs7JveMa-66">
          <mxGeometry relative="1" as="geometry" />
        </mxCell>
      </root>
    </mxGraphModel>
  </diagram>
</mxfile>
